<?xml version="1.0" encoding="utf-8"?>
<!-- Generator: Adobe Illustrator 16.0.4, SVG Export Plug-In . SVG Version: 6.00 Build 0)  -->
<!DOCTYPE svg PUBLIC "-//W3C//DTD SVG 1.1//EN" "http://www.w3.org/Graphics/SVG/1.1/DTD/svg11.dtd">
<svg version="1.1" id="Layer_1" xmlns="http://www.w3.org/2000/svg" xmlns:xlink="http://www.w3.org/1999/xlink" x="0px" y="0px"
	 width="635.21px" height="84.135px" viewBox="0 0 635.21 84.135" enable-background="new 0 0 635.21 84.135" xml:space="preserve">
<g opacity="0.4">
	<path d="M15.738,10.8v15.3H38.85l2.657,10.8H15.738v15.3h31.081V63H5.111V0h41.708v10.8H15.738z"/>
	<path d="M99.596,16.74c2.479,0,4.648,0.48,6.508,1.44c1.86,0.96,3.379,2.281,4.561,3.96c1.18,1.68,2.065,3.631,2.656,5.85
		c0.589,2.22,0.886,4.621,0.886,7.2V63h-10.626V35.19c0-2.1-0.739-3.899-2.213-5.4c-1.417-1.499-3.188-2.25-5.314-2.25
		c-2.125,0-3.896,0.751-5.312,2.25c-1.477,1.5-2.214,3.3-2.214,5.4V63H77.9V35.19c0-2.1-0.738-3.899-2.213-5.4
		c-0.708-0.779-1.521-1.35-2.436-1.71c-0.916-0.36-1.874-0.54-2.877-0.54c-2.185,0-3.985,0.751-5.402,2.25
		c-1.477,1.5-2.213,3.3-2.213,5.4V63H52.132V18h10.626v3.96c1.711-1.499,3.511-2.745,5.401-3.735
		c1.889-0.99,3.808-1.485,5.756-1.485c2.657,0,4.84,0.54,6.552,1.62c1.711,1.08,3.246,2.581,4.605,4.5
		c1.594-1.739,3.66-3.195,6.199-4.365C93.809,17.325,96.584,16.74,99.596,16.74z"/>
	<path d="M166.982,16.74c2.479,0,4.65,0.48,6.509,1.44c1.859,0.96,3.378,2.281,4.56,3.96c1.181,1.68,2.065,3.631,2.656,5.85
		c0.589,2.22,0.886,4.621,0.886,7.2V63h-10.626V35.19c0-2.1-0.738-3.899-2.214-5.4c-1.417-1.499-3.187-2.25-5.313-2.25
		c-2.125,0-3.896,0.751-5.312,2.25c-1.478,1.5-2.214,3.3-2.214,5.4V63h-10.626V35.19c0-2.1-0.739-3.899-2.213-5.4
		c-0.708-0.779-1.521-1.35-2.436-1.71c-0.916-0.36-1.875-0.54-2.878-0.54c-2.185,0-3.984,0.751-5.401,2.25
		c-1.477,1.5-2.214,3.3-2.214,5.4V63h-10.625V18h10.625v3.96c1.711-1.499,3.511-2.745,5.402-3.735
		c1.889-0.99,3.807-1.485,5.755-1.485c2.657,0,4.841,0.54,6.553,1.62c1.711,1.08,3.246,2.581,4.605,4.5
		c1.594-1.739,3.659-3.195,6.199-4.365C161.196,17.325,163.971,16.74,166.982,16.74z"/>
	<path d="M251.813,0l-1.772,21.33h-7.083L241.186,0H251.813z"/>
	<path d="M277.491,35.1c0.708,0.18,1.889,0.601,3.543,1.26c1.651,0.661,3.35,1.575,5.091,2.745c1.741,1.17,3.261,2.625,4.56,4.365
		c1.298,1.741,1.948,3.811,1.948,6.21c0,2.101-0.34,4.021-1.019,5.76c-0.679,1.741-1.668,3.271-2.966,4.59
		c-1.3,1.321-2.894,2.34-4.782,3.06c-1.89,0.72-4.016,1.08-6.376,1.08c-3.601,0-6.951-0.661-10.051-1.98
		c-3.098-1.319-5.593-2.939-7.482-4.86l7.35-7.47c1.535,1.861,3.173,3.06,4.915,3.6c1.74,0.54,3.202,0.81,4.383,0.81
		c1.829,0,3.188-0.36,4.074-1.08c0.885-0.72,1.329-1.589,1.329-2.61c0-0.72-0.296-1.35-0.886-1.89c-0.59-0.54-1.284-0.99-2.081-1.35
		c-0.797-0.36-1.609-0.644-2.436-0.855c-0.827-0.209-1.505-0.405-2.036-0.585c-0.708-0.239-1.903-0.66-3.586-1.26
		c-1.682-0.599-3.395-1.47-5.135-2.61c-1.743-1.139-3.264-2.579-4.562-4.32c-1.299-1.739-1.948-3.839-1.948-6.3
		c0-2.52,0.428-4.694,1.285-6.525c0.855-1.829,1.992-3.344,3.409-4.545c1.417-1.199,3.039-2.084,4.87-2.655
		c1.83-0.57,3.719-0.855,5.667-0.855c3.011,0,5.563,0.36,7.66,1.08c2.094,0.72,3.821,1.5,5.18,2.34
		c1.534,1.021,2.834,2.16,3.896,3.42l-7.438,7.56c-1.182-1.56-2.479-2.7-3.896-3.42c-1.417-0.72-2.922-1.08-4.517-1.08
		c-1.238,0-2.465,0.301-3.674,0.9c-1.211,0.601-1.815,1.561-1.815,2.88c0,0.72,0.266,1.336,0.797,1.845
		c0.531,0.51,1.18,0.931,1.947,1.26c0.768,0.33,1.579,0.616,2.436,0.855C276,34.71,276.783,34.92,277.491,35.1z"/>
	<path d="M357.895,0v37.8c0,3.661-0.679,7.096-2.037,10.305c-1.358,3.21-3.216,6.016-5.579,8.415c-2.361,2.4-5.135,4.291-8.322,5.67
		c-3.189,1.379-6.584,2.07-10.184,2.07c-3.603,0-6.968-0.69-10.096-2.07s-5.874-3.27-8.234-5.67l7.527-7.65
		c3.011,3.06,6.611,4.59,10.804,4.59c4.309,0,7.969-1.53,10.981-4.59c1.474-1.499,2.595-3.195,3.364-5.085
		c0.765-1.89,1.151-3.884,1.151-5.985V0H357.895z"/>
	<path d="M385.699,16.74c3.247,0,6.288,0.616,9.121,1.845c2.833,1.23,5.314,2.925,7.438,5.085c2.125,2.16,3.792,4.68,5.002,7.56
		s1.817,5.971,1.817,9.27c0,3.24-0.606,6.3-1.817,9.18c-1.21,2.88-2.877,5.4-5.002,7.56c-2.125,2.16-4.605,3.855-7.438,5.085
		c-2.833,1.229-5.874,1.845-9.121,1.845c-3.247,0-6.287-0.616-9.121-1.845c-2.833-1.229-5.313-2.925-7.438-5.085
		c-2.125-2.16-3.793-4.68-5.003-7.56c-1.211-2.88-1.816-5.94-1.816-9.18c0-3.299,0.604-6.39,1.816-9.27
		c1.209-2.88,2.878-5.4,5.003-7.56c2.125-2.16,4.605-3.854,7.438-5.085C379.412,17.356,382.452,16.74,385.699,16.74z M385.699,27.54
		c-3.542,0-6.551,1.26-9.032,3.78c-2.479,2.52-3.719,5.58-3.719,9.18c0,3.541,1.24,6.57,3.719,9.09
		c1.18,1.26,2.553,2.205,4.119,2.835c1.563,0.63,3.201,0.945,4.913,0.945s3.335-0.315,4.871-0.945
		c1.534-0.63,2.922-1.575,4.162-2.835c2.479-2.52,3.719-5.549,3.719-9.09c0-3.6-1.239-6.66-3.719-9.18
		C392.132,28.8,389.123,27.54,385.699,27.54z"/>
	<path d="M455.036,18v45h-10.626v-3.42c-1.593,1.381-3.396,2.506-5.401,3.375c-2.008,0.869-4.251,1.305-6.729,1.305
		c-2.894,0-5.521-0.555-7.883-1.665c-2.361-1.11-4.382-2.625-6.065-4.545c-1.683-1.919-2.982-4.169-3.896-6.75
		c-0.916-2.579-1.372-5.339-1.372-8.28V18h10.626v25.02c0,2.821,1.031,5.28,3.099,7.38c2.007,2.041,4.428,3.06,7.261,3.06
		c2.893,0,5.343-1.02,7.35-3.06c2.006-2.039,3.011-4.5,3.011-7.38V18H455.036z"/>
	<path d="M477.039,18c2.096-0.9,4.472-1.35,7.129-1.35v10.8c-3.543,0-6.553,1.26-9.033,3.78c-2.479,2.641-3.719,5.701-3.719,9.18V63
		h-10.626V40.41v-22.5h10.626v3.51C473.069,20.041,474.943,18.9,477.039,18z"/>
	<path d="M511.352,16.74c2.893,0,5.521,0.555,7.881,1.665c2.358,1.111,4.382,2.641,6.063,4.59c1.685,1.95,2.98,4.216,3.898,6.795
		c0.915,2.581,1.373,5.341,1.373,8.28V63h-10.628V38.07c0-3-1.032-5.49-3.097-7.47c-2.008-2.039-4.429-3.06-7.263-3.06
		c-2.891,0-5.345,1.021-7.351,3.06c-2.008,2.041-3.01,4.531-3.01,7.47V63h-10.626V18h10.626v3.42
		c1.595-1.379,3.394-2.504,5.403-3.375C506.629,17.176,508.87,16.74,511.352,16.74z"/>
	<path d="M569.53,45.9h-23.202c0.591,1.381,1.444,2.61,2.567,3.69c1.24,1.26,2.628,2.205,4.164,2.835
		c1.533,0.63,3.155,0.945,4.867,0.945c2.423,0,4.576-0.57,6.465-1.71l11.07,4.5c-2.127,2.52-4.694,4.486-7.706,5.895
		c-3.009,1.409-6.286,2.115-9.829,2.115c-3.244,0-6.285-0.616-9.119-1.845c-2.832-1.229-5.313-2.925-7.438-5.085
		c-2.125-2.16-3.794-4.68-5.004-7.56c-1.211-2.88-1.816-5.94-1.816-9.18c0-3.299,0.605-6.39,1.816-9.27
		c1.21-2.88,2.879-5.4,5.004-7.56c2.124-2.16,4.605-3.854,7.438-5.085c2.834-1.229,5.875-1.845,9.119-1.845
		c3.249,0,6.288,0.616,9.124,1.845c2.832,1.23,5.312,2.925,7.437,5.085c2.126,2.16,3.793,4.68,5.003,7.56
		c1.209,2.88,1.817,5.971,1.817,9.27c0,1.921-0.209,3.721-0.622,5.4H569.53z M557.927,27.54c-3.423,0-6.433,1.26-9.031,3.78
		c-1.123,1.141-1.977,2.401-2.567,3.78h23.202c-0.591-1.379-1.448-2.64-2.569-3.78C564.481,28.8,561.47,27.54,557.927,27.54z"/>
	<path d="M630.099,18l-20.545,45l-2.745,6.12c-1.654,3.659-4.132,6.57-7.438,8.73c-3.308,2.16-6.967,3.24-10.982,3.24h-4.691
		l2.656-10.8h2.569c1.71,0,3.304-0.481,4.781-1.44c1.474-0.96,2.565-2.25,3.275-3.87l0.887-1.98l-20.545-45h11.689l14.699,32.22
		L618.409,18H630.099z"/>
	<path d="M232.423,19.19h-10.625l-0.038-1.28v3.6c-1-1.009-2.631-1.886-4.168-2.639l0.034-0.061
		c-2.138-1.085-4.549-1.737-7.233-1.969c-0.105-0.009-0.211-0.016-0.317-0.024c-0.626-0.046-1.26-0.077-1.915-0.077
		c-3.249,0-6.244,0.616-8.989,1.845c-1.785,0.799-3.396,1.816-4.868,3.009c-0.793,0.642-1.558,1.32-2.26,2.076
		c-2.007,2.16-3.572,4.68-4.693,7.56c-1.121,2.88-1.682,5.94-1.682,9.18c0,0.015,0.002,0.03,0.002,0.045s-0.002,0.03-0.002,0.045
		c0,3.24,0.561,6.3,1.682,9.18c1.121,2.88,2.687,5.4,4.694,7.56c0.626,0.675,1.303,1.288,2.002,1.873
		c1.538,1.285,3.238,2.367,5.126,3.212c2.745,1.229,5.74,1.845,8.988,1.845c0.655,0,1.292-0.031,1.918-0.077
		c0.106-0.008,0.213-0.015,0.318-0.024c2.685-0.232,5.101-0.884,7.238-1.969l-0.043-0.061c1.537-0.752,3.168-1.63,4.168-2.639V63
		l0.038,1.19h10.625l0.338-1.19V17.91L232.423,19.19z M213.761,52.473V52.47c0,0.142-0.647,0.264-1.001,0.372
		c-1.175,0.352-2.406,0.528-3.73,0.528c-1.713,0-3.343-0.331-4.906-0.99c-1.56-0.659-2.925-1.585-4.103-2.779
		c-0.003-0.004-0.005-0.007-0.009-0.012c-0.103-0.105-0.191-0.216-0.29-0.323c-2.267-2.447-3.416-5.382-3.425-8.812
		c0.01-3.43,1.16-6.365,3.427-8.812c0.098-0.106,0.188-0.218,0.291-0.323c0.003-0.004,0.007-0.007,0.011-0.012
		c1.178-1.193,2.547-2.12,4.106-2.779c1.564-0.659,3.202-0.99,4.915-0.99c1.323,0,2.537,0.176,3.712,0.528
		c0.355,0.108,1.002,0.23,1.002,0.372v-0.002c2,0.629,3.008,1.586,4.283,2.882c2.47,2.511,3.727,5.558,3.735,9.141
		c-0.012,3.578-1.276,6.622-3.744,9.13C216.759,50.886,215.761,51.843,213.761,52.473z"/>
</g>
<g>
	<path fill="#FFE652" d="M10.8,13.845v15.3h23.49l2.7,10.8H10.8v15.3h31.59v10.8H0v-63h42.39v10.8H10.8z"/>
	<path fill="#FFE652" d="M96.029,19.785c2.521,0,4.726,0.48,6.615,1.44c1.89,0.96,3.435,2.281,4.635,3.96
		c1.2,1.68,2.1,3.631,2.7,5.85c0.6,2.22,0.9,4.621,0.9,7.2v27.81h-10.8v-27.81c0-2.1-0.751-3.899-2.25-5.4
		c-1.44-1.499-3.24-2.25-5.4-2.25s-3.96,0.751-5.4,2.25c-1.5,1.5-2.25,3.3-2.25,5.4v27.81h-10.8v-27.81c0-2.1-0.751-3.899-2.25-5.4
		c-0.72-0.779-1.545-1.35-2.475-1.71c-0.932-0.36-1.905-0.54-2.925-0.54c-2.221,0-4.051,0.751-5.49,2.25
		c-1.501,1.5-2.25,3.3-2.25,5.4v27.81h-10.8v-45h10.8v3.96c1.739-1.499,3.568-2.745,5.49-3.735c1.919-0.99,3.869-1.485,5.85-1.485
		c2.7,0,4.919,0.54,6.66,1.62c1.739,1.08,3.299,2.581,4.68,4.5c1.62-1.739,3.72-3.195,6.3-4.365
		C90.148,20.37,92.97,19.785,96.029,19.785z"/>
	<path fill="#FFE652" d="M164.519,19.785c2.52,0,4.725,0.48,6.615,1.44c1.89,0.96,3.434,2.281,4.635,3.96
		c1.199,1.68,2.1,3.631,2.7,5.85c0.599,2.22,0.899,4.621,0.899,7.2v27.81h-10.8v-27.81c0-2.1-0.751-3.899-2.25-5.4
		c-1.44-1.499-3.24-2.25-5.4-2.25c-2.159,0-3.96,0.751-5.399,2.25c-1.501,1.5-2.25,3.3-2.25,5.4v27.81h-10.8v-27.81
		c0-2.1-0.751-3.899-2.25-5.4c-0.721-0.779-1.546-1.35-2.476-1.71c-0.931-0.36-1.905-0.54-2.925-0.54c-2.221,0-4.05,0.751-5.49,2.25
		c-1.5,1.5-2.25,3.3-2.25,5.4v27.81h-10.8v-45h10.8v3.96c1.74-1.499,3.569-2.745,5.49-3.735c1.92-0.99,3.87-1.485,5.85-1.485
		c2.7,0,4.92,0.54,6.66,1.62s3.299,2.581,4.681,4.5c1.619-1.739,3.719-3.195,6.3-4.365C158.638,20.37,161.458,19.785,164.519,19.785
		z"/>
	<path fill="#FFE652" d="M250.736,3.045l-1.8,21.33h-7.2l-1.8-21.33H250.736z"/>
	<path fill="#FFE652" d="M276.836,38.145c0.72,0.18,1.919,0.601,3.6,1.26c1.679,0.661,3.404,1.575,5.175,2.745
		c1.77,1.17,3.314,2.625,4.635,4.365c1.319,1.741,1.98,3.811,1.98,6.21c0,2.101-0.346,4.021-1.035,5.76
		c-0.69,1.741-1.696,3.271-3.015,4.59c-1.32,1.321-2.94,2.34-4.86,3.06c-1.921,0.72-4.081,1.08-6.479,1.08
		c-3.661,0-7.065-0.661-10.216-1.98c-3.149-1.319-5.686-2.939-7.604-4.86l7.47-7.47c1.56,1.861,3.225,3.06,4.995,3.6
		c1.77,0.54,3.254,0.81,4.455,0.81c1.859,0,3.24-0.36,4.14-1.08c0.9-0.72,1.351-1.589,1.351-2.61c0-0.72-0.301-1.35-0.9-1.89
		c-0.601-0.54-1.305-0.99-2.115-1.35c-0.81-0.36-1.635-0.644-2.475-0.855c-0.841-0.209-1.53-0.405-2.07-0.585
		c-0.72-0.239-1.935-0.66-3.645-1.26c-1.71-0.599-3.451-1.47-5.22-2.61c-1.771-1.139-3.316-2.579-4.636-4.32
		c-1.32-1.739-1.979-3.839-1.979-6.3c0-2.52,0.435-4.694,1.305-6.525c0.869-1.829,2.025-3.344,3.465-4.545
		c1.44-1.199,3.09-2.084,4.95-2.655c1.859-0.57,3.78-0.855,5.76-0.855c3.061,0,5.655,0.36,7.785,1.08
		c2.129,0.72,3.884,1.5,5.265,2.34c1.56,1.021,2.881,2.16,3.961,3.42l-7.561,7.56c-1.201-1.56-2.52-2.7-3.96-3.42
		c-1.44-0.72-2.97-1.08-4.59-1.08c-1.26,0-2.506,0.301-3.735,0.9c-1.23,0.601-1.845,1.561-1.845,2.88c0,0.72,0.27,1.336,0.81,1.845
		c0.54,0.51,1.2,0.931,1.98,1.26c0.779,0.33,1.604,0.616,2.475,0.855C275.319,37.755,276.115,37.965,276.836,38.145z"/>
	<path fill="#FFE652" d="M358.555,3.045v37.8c0,3.661-0.689,7.096-2.07,10.305c-1.381,3.21-3.27,6.016-5.67,8.415
		c-2.4,2.4-5.219,4.291-8.459,5.67s-6.691,2.07-10.35,2.07c-3.661,0-7.081-0.69-10.261-2.07c-3.182-1.379-5.972-3.27-8.37-5.67
		l7.649-7.65c3.061,3.06,6.72,4.59,10.981,4.59c4.379,0,8.1-1.53,11.16-4.59c1.498-1.499,2.639-3.195,3.42-5.085
		c0.777-1.89,1.17-3.884,1.17-5.985v-37.8H358.555z"/>
	<path fill="#FFE652" d="M386.813,19.785c3.3,0,6.391,0.616,9.271,1.845c2.88,1.23,5.4,2.925,7.56,5.085
		c2.16,2.16,3.854,4.68,5.085,7.56c1.229,2.88,1.846,5.971,1.846,9.27c0,3.24-0.616,6.3-1.846,9.18c-1.23,2.88-2.925,5.4-5.085,7.56
		c-2.159,2.16-4.68,3.855-7.56,5.085c-2.88,1.229-5.971,1.845-9.271,1.845s-6.39-0.616-9.27-1.845c-2.88-1.229-5.4-2.925-7.56-5.085
		c-2.16-2.16-3.856-4.68-5.086-7.56c-1.23-2.88-1.845-5.94-1.845-9.18c0-3.299,0.614-6.39,1.845-9.27
		c1.229-2.88,2.926-5.4,5.086-7.56c2.159-2.16,4.68-3.854,7.56-5.085C380.424,20.401,383.514,19.785,386.813,19.785z
		 M386.813,30.585c-3.6,0-6.659,1.26-9.18,3.78c-2.52,2.52-3.78,5.58-3.78,9.18c0,3.541,1.261,6.57,3.78,9.09
		c1.199,1.26,2.595,2.205,4.186,2.835c1.589,0.63,3.254,0.945,4.994,0.945s3.39-0.315,4.95-0.945c1.56-0.63,2.971-1.575,4.23-2.835
		c2.52-2.52,3.779-5.549,3.779-9.09c0-3.6-1.26-6.66-3.779-9.18C393.353,31.845,390.293,30.585,386.813,30.585z"/>
	<path fill="#FFE652" d="M457.284,21.045v45h-10.8v-3.42c-1.62,1.381-3.451,2.506-5.49,3.375c-2.041,0.869-4.32,1.305-6.84,1.305
		c-2.94,0-5.611-0.555-8.011-1.665c-2.4-1.11-4.454-2.625-6.164-4.545c-1.711-1.919-3.031-4.169-3.961-6.75
		c-0.931-2.579-1.395-5.339-1.395-8.28v-25.02h10.8v25.02c0,2.821,1.049,5.28,3.15,7.38c2.039,2.041,4.5,3.06,7.38,3.06
		c2.939,0,5.43-1.02,7.47-3.06c2.039-2.039,3.061-4.5,3.061-7.38v-25.02H457.284z"/>
	<path fill="#FFE652" d="M479.648,21.045c2.129-0.9,4.545-1.35,7.245-1.35v10.8c-3.601,0-6.66,1.26-9.18,3.78
		c-2.521,2.641-3.78,5.701-3.78,9.18v22.59h-10.8v-22.59v-22.5h10.8v3.51C475.612,23.085,477.518,21.945,479.648,21.045z"/>
	<path fill="#FFE652" d="M514.521,19.785c2.939,0,5.609,0.555,8.01,1.665c2.4,1.111,4.455,2.641,6.166,4.59
		c1.709,1.95,3.029,4.216,3.959,6.795c0.93,2.581,1.396,5.341,1.396,8.28v24.93h-10.801v-24.93c0-3-1.051-5.49-3.15-7.47
		c-2.041-2.039-4.5-3.06-7.379-3.06c-2.941,0-5.432,1.021-7.471,3.06c-2.041,2.041-3.061,4.531-3.061,7.47v24.93h-10.799v-45h10.799
		v3.42c1.621-1.379,3.449-2.504,5.49-3.375C509.72,20.221,512.001,19.785,514.521,19.785z"/>
	<path fill="#FFE652" d="M573.649,48.945h-23.58c0.6,1.381,1.471,2.61,2.611,3.69c1.26,1.26,2.668,2.205,4.23,2.835
		c1.559,0.63,3.209,0.945,4.949,0.945c2.459,0,4.648-0.57,6.57-1.71l11.25,4.5c-2.16,2.52-4.77,4.486-7.83,5.895
		c-3.061,1.409-6.391,2.115-9.99,2.115c-3.301,0-6.391-0.616-9.27-1.845c-2.881-1.229-5.4-2.925-7.561-5.085
		c-2.16-2.16-3.855-4.68-5.086-7.56c-1.23-2.88-1.844-5.94-1.844-9.18c0-3.299,0.613-6.39,1.844-9.27s2.926-5.4,5.086-7.56
		s4.68-3.854,7.561-5.085c2.879-1.229,5.969-1.845,9.27-1.845c3.299,0,6.391,0.616,9.27,1.845c2.881,1.23,5.4,2.925,7.561,5.085
		s3.854,4.68,5.084,7.56s1.846,5.971,1.846,9.27c0,1.921-0.211,3.721-0.629,5.4H573.649z M561.86,30.585
		c-3.48,0-6.541,1.26-9.18,3.78c-1.141,1.141-2.012,2.401-2.611,3.78h23.58c-0.6-1.379-1.471-2.64-2.609-3.78
		C568.521,31.845,565.46,30.585,561.86,30.585z"/>
	<path fill="#FFE652" d="M635.21,21.045l-20.879,45l-2.791,6.12c-1.68,3.659-4.199,6.57-7.559,8.73
		c-3.361,2.16-7.082,3.24-11.16,3.24h-4.771l2.701-10.8h2.609c1.74,0,3.359-0.481,4.859-1.44c1.5-0.96,2.611-2.25,3.33-3.87
		l0.9-1.98l-20.879-45h11.879l14.939,32.22l14.941-32.22H635.21z"/>
	<path fill="#FFE652" d="M231.737,21.19h-10.799l-0.178-0.235v3.6c-1-1.009-2.604-1.886-4.166-2.639l0.069-0.061
		c-2.172-1.085-4.605-1.737-7.334-1.969c-0.106-0.009-0.204-0.016-0.312-0.024c-0.637-0.046-1.277-0.077-1.944-0.077
		c-3.301,0-6.343,0.616-9.133,1.845c-1.813,0.799-3.451,1.816-4.947,3.009c-0.806,0.642-1.582,1.32-2.295,2.076
		c-2.04,2.16-3.63,4.68-4.77,7.56c-1.14,2.88-1.71,5.94-1.71,9.18c0,0.015,0.002,0.03,0.002,0.045s-0.002,0.03-0.002,0.045
		c0,3.24,0.57,6.3,1.71,9.18c1.139,2.88,2.73,5.4,4.77,7.56c0.637,0.675,1.324,1.288,2.035,1.873
		c1.563,1.285,3.292,2.367,5.21,3.212c2.79,1.229,5.834,1.845,9.135,1.845c0.667,0,1.313-0.031,1.95-0.077
		c0.108-0.008,0.217-0.015,0.324-0.024c2.729-0.232,5.184-0.884,7.356-1.969l-0.113-0.061c1.562-0.752,3.166-1.63,4.166-2.639v3.599
		l0.178,0.145h10.799l0.023-0.145v-45.09L231.737,21.19z M212.761,55.518v-0.002c0,0.142-0.653,0.264-1.012,0.372
		c-1.194,0.352-2.444,0.528-3.79,0.528c-1.741,0-3.396-0.331-4.985-0.99c-1.585-0.659-2.971-1.585-4.168-2.779
		c-0.004-0.004-0.006-0.007-0.01-0.012c-0.105-0.105-0.194-0.216-0.294-0.323c-2.304-2.447-3.471-5.382-3.481-8.812
		c0.01-3.43,1.179-6.365,3.483-8.812c0.101-0.106,0.19-0.218,0.295-0.323c0.004-0.004,0.008-0.007,0.012-0.012
		c1.197-1.193,2.588-2.12,4.173-2.779c1.589-0.659,3.254-0.99,4.995-0.99c1.345,0,2.575,0.176,3.77,0.528
		c0.36,0.108,1.013,0.23,1.013,0.372v-0.002c2,0.629,3.062,1.586,4.358,2.882c2.51,2.511,3.788,5.558,3.797,9.141
		c-0.012,3.578-1.299,6.622-3.807,9.13C215.812,53.931,214.761,54.888,212.761,55.518z"/>
</g>
</svg>
