<?xml version="1.0" encoding="UTF-8" standalone="no"?>
<!DOCTYPE svg PUBLIC "-//W3C//DTD SVG 1.1//EN"
 "http://www.w3.org/Graphics/SVG/1.1/DTD/svg11.dtd">
<!-- Generated by graphviz version 2.38.0 (20140413.2041)
 -->
<!-- Title: G Pages: 1 -->
<svg width="472pt" height="612pt"
 viewBox="0.00 0.00 471.95 612.47" xmlns="http://www.w3.org/2000/svg" xmlns:xlink="http://www.w3.org/1999/xlink">
<g id="graph0" class="graph" transform="scale(1 1) rotate(0) translate(4 608.471)">
<title>G</title>
<polygon fill="white" stroke="none" points="-4,4 -4,-608.471 467.949,-608.471 467.949,4 -4,4"/>
<!-- serves6 -->
<g id="node1" class="node"><title>serves6</title>
<polygon fill="none" stroke="black" points="160.311,-443.898 106.311,-443.898 106.311,-407.898 160.311,-407.898 160.311,-443.898"/>
<text text-anchor="middle" x="133.311" y="-421.698" font-family="Times,serif" font-size="14.00">serves</text>
</g>
<!-- food2player1 -->
<g id="node10" class="node"><title>food2player1</title>
<ellipse fill="none" stroke="black" cx="97.3108" cy="-301.26" rx="62.0828" ry="62.0828"/>
<text text-anchor="middle" x="97.3108" y="-297.06" font-family="Times,serif" font-size="14.00">player 1&#39;s food</text>
</g>
<!-- serves6&#45;&gt;food2player1 -->
<g id="edge9" class="edge"><title>serves6&#45;&gt;food2player1</title>
<path fill="none" stroke="green" d="M128.305,-407.845C125.414,-397.995 121.564,-384.88 117.563,-371.252"/>
<polygon fill="green" stroke="green" points="120.81,-369.887 114.635,-361.277 114.094,-371.858 120.81,-369.887"/>
</g>
<!-- plate3player1 -->
<g id="node11" class="node"><title>plate3player1</title>
<ellipse fill="none" stroke="black" cx="241.311" cy="-301.26" rx="63.0347" ry="63.0347"/>
<text text-anchor="middle" x="241.311" y="-297.06" font-family="Times,serif" font-size="14.00">player 1&#39;s plate</text>
</g>
<!-- serves6&#45;&gt;plate3player1 -->
<g id="edge7" class="edge"><title>serves6&#45;&gt;plate3player1</title>
<path fill="none" stroke="black" d="M155.04,-400.223C165.988,-387.791 179.731,-372.186 193.009,-357.108"/>
<polygon fill="black" stroke="black" points="152.31,-398.027 148.328,-407.845 157.563,-402.654 152.31,-398.027"/>
<polygon fill="black" stroke="black" points="195.911,-359.109 199.893,-349.291 190.657,-354.483 195.911,-359.109"/>
</g>
<!-- offers2 -->
<g id="node2" class="node"><title>offers2</title>
<polygon fill="none" stroke="black" points="268.311,-443.898 214.311,-443.898 214.311,-407.898 268.311,-407.898 268.311,-443.898"/>
<text text-anchor="middle" x="241.311" y="-421.698" font-family="Times,serif" font-size="14.00">offers</text>
</g>
<!-- offers2&#45;&gt;plate3player1 -->
<g id="edge8" class="edge"><title>offers2&#45;&gt;plate3player1</title>
<path fill="none" stroke="green" d="M241.311,-407.845C241.311,-398.809 241.311,-387.026 241.311,-374.62"/>
<polygon fill="green" stroke="green" points="244.811,-374.578 241.311,-364.578 237.811,-374.578 244.811,-374.578"/>
</g>
<!-- offers3 -->
<g id="node3" class="node"><title>offers3</title>
<polygon fill="none" stroke="black" points="88.3108,-194.622 34.3108,-194.622 34.3108,-158.622 88.3108,-158.622 88.3108,-194.622"/>
<text text-anchor="middle" x="61.3108" y="-172.422" font-family="Times,serif" font-size="14.00">offers</text>
</g>
<!-- food2friend3 -->
<g id="node9" class="node"><title>food2friend3</title>
<ellipse fill="none" stroke="black" cx="61.3108" cy="-61.3108" rx="61.1223" ry="61.1223"/>
<text text-anchor="middle" x="61.3108" y="-57.1108" font-family="Times,serif" font-size="14.00">friend 3&#39;s food</text>
</g>
<!-- offers3&#45;&gt;food2friend3 -->
<g id="edge4" class="edge"><title>offers3&#45;&gt;food2friend3</title>
<path fill="none" stroke="green" d="M61.3108,-158.412C61.3108,-151.32 61.3108,-142.589 61.3108,-133.31"/>
<polygon fill="green" stroke="green" points="64.8109,-133.076 61.3108,-123.076 57.8109,-133.076 64.8109,-133.076"/>
</g>
<!-- relieve_hunger4 -->
<g id="node4" class="node"><title>relieve_hunger4</title>
<polygon fill="none" stroke="black" points="360.27,-194.622 260.352,-194.622 260.352,-158.622 360.27,-158.622 360.27,-194.622"/>
<text text-anchor="middle" x="310.311" y="-172.422" font-family="Times,serif" font-size="14.00">relieve_hunger</text>
</g>
<!-- eat5 -->
<g id="node5" class="node"><title>eat5</title>
<polygon fill="none" stroke="black" points="160.311,-194.622 106.311,-194.622 106.311,-158.622 160.311,-158.622 160.311,-194.622"/>
<text text-anchor="middle" x="133.311" y="-172.422" font-family="Times,serif" font-size="14.00">eat</text>
</g>
<!-- get_hungry1 -->
<g id="node6" class="node"><title>get_hungry1</title>
<polygon fill="none" stroke="black" points="433.077,-443.898 353.545,-443.898 353.545,-407.898 433.077,-407.898 433.077,-443.898"/>
<text text-anchor="middle" x="393.311" y="-421.698" font-family="Times,serif" font-size="14.00">get_hungry</text>
</g>
<!-- hunger1player1 -->
<g id="node8" class="node"><title>hunger1player1</title>
<ellipse fill="none" stroke="black" cx="393.311" cy="-301.26" rx="70.7761" ry="70.7761"/>
<text text-anchor="middle" x="393.311" y="-297.06" font-family="Times,serif" font-size="14.00">player 1&#39;s hunger</text>
</g>
<!-- get_hungry1&#45;&gt;hunger1player1 -->
<g id="edge2" class="edge"><title>get_hungry1&#45;&gt;hunger1player1</title>
<path fill="none" stroke="green" d="M393.311,-407.845C393.311,-400.665 393.311,-391.75 393.311,-382.166"/>
<polygon fill="green" stroke="green" points="396.811,-381.981 393.311,-371.981 389.811,-381.982 396.811,-381.981"/>
</g>
<!-- plate3friend2 -->
<g id="node7" class="node"><title>plate3friend2</title>
<ellipse fill="none" stroke="black" cx="241.311" cy="-542.184" rx="62.0742" ry="62.0742"/>
<text text-anchor="middle" x="241.311" y="-537.984" font-family="Times,serif" font-size="14.00">friend 2&#39;s plate</text>
</g>
<!-- plate3friend2&#45;&gt;offers2 -->
<g id="edge5" class="edge"><title>plate3friend2&#45;&gt;offers2</title>
<path fill="none" stroke="red" d="M241.311,-479.692C241.311,-470.786 241.311,-462.022 241.311,-454.272"/>
<polygon fill="red" stroke="red" points="244.811,-454.081 241.311,-444.081 237.811,-454.081 244.811,-454.081"/>
</g>
<!-- hunger1player1&#45;&gt;relieve_hunger4 -->
<g id="edge11" class="edge"><title>hunger1player1&#45;&gt;relieve_hunger4</title>
<path fill="none" stroke="red" d="M353.998,-242.173C344.741,-228.495 335.338,-214.601 327.639,-203.225"/>
<polygon fill="red" stroke="red" points="330.369,-201.014 321.865,-194.694 324.572,-204.937 330.369,-201.014"/>
</g>
<!-- food2player1&#45;&gt;offers3 -->
<g id="edge6" class="edge"><title>food2player1&#45;&gt;offers3</title>
<path fill="none" stroke="red" d="M79.9435,-241.096C76.1829,-228.285 72.3853,-215.348 69.2086,-204.526"/>
<polygon fill="red" stroke="red" points="72.5496,-203.481 66.3746,-194.872 65.833,-205.453 72.5496,-203.481"/>
</g>
<!-- food2player1&#45;&gt;relieve_hunger4 -->
<g id="edge3" class="edge"><title>food2player1&#45;&gt;relieve_hunger4</title>
<path fill="none" stroke="red" d="M139.03,-254.424C148.406,-245.754 158.73,-237.316 169.311,-230.622 194.1,-214.937 224.235,-202.822 250.274,-194.16"/>
<polygon fill="red" stroke="red" points="251.592,-197.412 260.033,-191.009 249.441,-190.751 251.592,-197.412"/>
</g>
<!-- food2player1&#45;&gt;eat5 -->
<g id="edge10" class="edge"><title>food2player1&#45;&gt;eat5</title>
<path fill="none" stroke="red" d="M114.678,-241.096C118.439,-228.285 122.236,-215.348 125.413,-204.526"/>
<polygon fill="red" stroke="red" points="128.789,-205.453 128.247,-194.872 122.072,-203.481 128.789,-205.453"/>
</g>
</g>
</svg>
