<?xml version="1.0" encoding="UTF-8" standalone="no"?>
<!DOCTYPE svg PUBLIC "-//W3C//DTD SVG 1.1//EN"
 "http://www.w3.org/Graphics/SVG/1.1/DTD/svg11.dtd">
<!-- Generated by graphviz version 2.38.0 (20140413.2041)
 -->
<!-- Title: G Pages: 1 -->
<svg width="356pt" height="665pt"
 viewBox="0.00 0.00 356.34 664.52" xmlns="http://www.w3.org/2000/svg" xmlns:xlink="http://www.w3.org/1999/xlink">
<g id="graph0" class="graph" transform="scale(1 1) rotate(0) translate(4 660.521)">
<title>G</title>
<polygon fill="white" stroke="none" points="-4,4 -4,-660.521 352.341,-660.521 352.341,4 -4,4"/>
<!-- clear5 -->
<g id="node1" class="node"><title>clear5</title>
<polygon fill="none" stroke="black" points="59.6689,-194.596 5.66887,-194.596 5.66887,-158.596 59.6689,-158.596 59.6689,-194.596"/>
<text text-anchor="middle" x="32.6689" y="-172.396" font-family="Times,serif" font-size="14.00">clear</text>
</g>
<!-- reveal3 -->
<g id="node2" class="node"><title>reveal3</title>
<polygon fill="none" stroke="black" points="186.669,-495.939 132.669,-495.939 132.669,-459.939 186.669,-459.939 186.669,-495.939"/>
<text text-anchor="middle" x="159.669" y="-473.739" font-family="Times,serif" font-size="14.00">reveal</text>
</g>
<!-- clarity6player1 -->
<g id="node6" class="node"><title>clarity6player1</title>
<ellipse fill="none" stroke="black" cx="68.6689" cy="-327.268" rx="68.8382" ry="68.8382"/>
<text text-anchor="middle" x="68.6689" y="-323.068" font-family="Times,serif" font-size="14.00">player 1&#39;s clarity</text>
</g>
<!-- reveal3&#45;&gt;clarity6player1 -->
<g id="edge7" class="edge"><title>reveal3&#45;&gt;clarity6player1</title>
<path fill="none" stroke="green" d="M149.23,-459.885C139.459,-443.921 124.214,-419.015 109.604,-395.145"/>
<polygon fill="green" stroke="green" points="112.467,-393.119 104.261,-386.417 106.497,-396.773 112.467,-393.119"/>
</g>
<!-- contemplation10player1 -->
<g id="node7" class="node"><title>contemplation10player1</title>
<ellipse fill="none" stroke="black" cx="251.669" cy="-327.268" rx="96.8438" ry="96.8438"/>
<text text-anchor="middle" x="251.669" y="-323.068" font-family="Times,serif" font-size="14.00">player 1&#39;s contemplation</text>
</g>
<!-- reveal3&#45;&gt;contemplation10player1 -->
<g id="edge3" class="edge"><title>reveal3&#45;&gt;contemplation10player1</title>
<path fill="none" stroke="black" d="M175.616,-451.168C181.436,-441.763 188.398,-430.513 195.712,-418.693"/>
<polygon fill="black" stroke="black" points="172.508,-449.539 170.222,-459.885 178.461,-453.223 172.508,-449.539"/>
<polygon fill="black" stroke="black" points="198.803,-420.349 201.089,-410.004 192.851,-416.666 198.803,-420.349"/>
</g>
<!-- find2 -->
<g id="node3" class="node"><title>find2</title>
<polygon fill="none" stroke="black" points="131.669,-194.596 77.6689,-194.596 77.6689,-158.596 131.669,-158.596 131.669,-194.596"/>
<text text-anchor="middle" x="104.669" y="-172.396" font-family="Times,serif" font-size="14.00">find</text>
</g>
<!-- crab5player1 -->
<g id="node4" class="node"><title>crab5player1</title>
<ellipse fill="none" stroke="black" cx="104.669" cy="-61.2979" rx="61.0964" ry="61.0964"/>
<text text-anchor="middle" x="104.669" y="-57.0979" font-family="Times,serif" font-size="14.00">player 1&#39;s crab</text>
</g>
<!-- find2&#45;&gt;crab5player1 -->
<g id="edge2" class="edge"><title>find2&#45;&gt;crab5player1</title>
<path fill="none" stroke="green" d="M104.669,-158.388C104.669,-151.296 104.669,-142.567 104.669,-133.289"/>
<polygon fill="green" stroke="green" points="108.169,-133.056 104.669,-123.056 101.169,-133.056 108.169,-133.056"/>
</g>
<!-- sand9player1 -->
<g id="node5" class="node"><title>sand9player1</title>
<ellipse fill="none" stroke="black" cx="159.669" cy="-594.23" rx="62.0828" ry="62.0828"/>
<text text-anchor="middle" x="159.669" y="-590.03" font-family="Times,serif" font-size="14.00">player 1&#39;s sand</text>
</g>
<!-- sand9player1&#45;&gt;reveal3 -->
<g id="edge1" class="edge"><title>sand9player1&#45;&gt;reveal3</title>
<path fill="none" stroke="red" d="M159.669,-531.736C159.669,-522.83 159.669,-514.065 159.669,-506.314"/>
<polygon fill="red" stroke="red" points="163.169,-506.123 159.669,-496.123 156.169,-506.123 163.169,-506.123"/>
</g>
<!-- clarity6player1&#45;&gt;clear5 -->
<g id="edge6" class="edge"><title>clarity6player1&#45;&gt;clear5</title>
<path fill="none" stroke="red" d="M52.6691,-260.192C47.9392,-240.659 43.0228,-220.355 39.248,-204.766"/>
<polygon fill="red" stroke="red" points="42.5886,-203.69 36.8334,-194.794 35.7852,-205.337 42.5886,-203.69"/>
</g>
<!-- clarity6player1&#45;&gt;find2 -->
<g id="edge4" class="edge"><title>clarity6player1&#45;&gt;find2</title>
<path fill="none" stroke="red" d="M84.6686,-260.192C89.3985,-240.659 94.315,-220.355 98.0897,-204.766"/>
<polygon fill="red" stroke="red" points="101.553,-205.337 100.504,-194.794 94.7491,-203.69 101.553,-205.337"/>
</g>
</g>
</svg>
